<svg id="Layer_1" data-name="Layer 1" xmlns="http://www.w3.org/2000/svg" viewBox="0 0 800 800"><defs><style>.cls-1{fill:#666;}</style></defs><title>openai-symbol-hexagon-flat-white</title><path class="cls-1" d="M349.25,477.78a1.18,1.18,0,0,0,1.09-.1L382.75,459l-93.62-54a12.44,12.44,0,0,1-6.3-10.9V305.43c0-.83,0-2,0-2.65A72.18,72.18,0,0,0,271.71,433Zm9.42-159v37.42l93.62-54.05a12.44,12.44,0,0,1,12.59,0l76.72,44.29c.7.41,1.71,1,2.27,1.36a72.18,72.18,0,0,0-107.21-74.77l-77.53,44.75A1.17,1.17,0,0,0,358.67,318.82Zm0,105.9,41.7,24.08,41.68-24.08V376.58l-41.68-24.07-41.7,24.07Zm83.38,57.77V445.07l-93.61,54.05a12.46,12.46,0,0,1-12.6,0l-76.71-44.29c-.71-.41-1.71-1-2.28-1.36a72.19,72.19,0,0,0,107.22,74.78l77.53-44.76A1.17,1.17,0,0,0,442.05,482.49ZM308.64,395.84l32.42,18.72V306.45a12.44,12.44,0,0,1,6.3-10.9l76.72-44.29c.7-.42,1.73-1,2.31-1.3A72.21,72.21,0,0,0,308,305.43V395A1.17,1.17,0,0,0,308.64,395.84Zm340.53-159.2L418,103.18a35.27,35.27,0,0,0-35.27,0L151.56,236.64a35.26,35.26,0,0,0-17.64,30.54V534.12a35.28,35.28,0,0,0,17.64,30.55L382.73,698.14a35.27,35.27,0,0,0,35.27,0L649.17,564.67a35.29,35.29,0,0,0,17.63-30.55V267.18A35.28,35.28,0,0,0,649.17,236.64ZM577.23,479.47A95.93,95.93,0,0,1,513.11,526a97,97,0,0,1-92.57,67.23A95.9,95.9,0,0,1,348.18,561a97,97,0,0,1-104.51-46.55,96,96,0,0,1-8.25-78.8,97.05,97.05,0,0,1-11.93-113.78,96,96,0,0,1,64.12-46.54,97,97,0,0,1,92.57-67.23,95.9,95.9,0,0,1,72.36,32.27,97,97,0,0,1,104.52,46.55,96,96,0,0,1,8.24,78.8A97.05,97.05,0,0,1,577.23,479.47Zm-85.15-74-32.41-18.72V494.86a12.44,12.44,0,0,1-6.3,10.9l-76.71,44.3c-.71.41-1.74,1-2.32,1.28a72.18,72.18,0,0,0,118.37-55.46V406.36A1.17,1.17,0,0,0,492.08,405.47ZM529,368.29l-77.54-44.76a1.13,1.13,0,0,0-1.08.1L418,342.34,511.6,396.4a12.45,12.45,0,0,1,6.29,10.9v88.58c0,.82,0,2,0,2.66A72.2,72.2,0,0,0,529,368.29Z"></path></svg>